<?xml version="1.0" encoding="utf-8"?>
<!-- Generator: Adobe Illustrator 23.0.1, SVG Export Plug-In . SVG Version: 6.00 Build 0)  -->
<svg version="1.1" id="图层_1" xmlns="http://www.w3.org/2000/svg" xmlns:xlink="http://www.w3.org/1999/xlink" x="0px" y="0px"
	 viewBox="0 0 226.8 226.8" style="enable-background:new 0 0 226.8 226.8;" xml:space="preserve">
<style type="text/css">
	.st0{fill:#FF0000;}
</style>
<path class="st0" d="M167.5,59.1c-25.5-25.4-66.6-25.7-92.4-0.7l53.6,53.1h0.1c1.2,1.2,1.9,2.9,1.9,4.6c0,1.8-0.7,3.4-1.9,4.6
	s-2.9,1.9-4.6,1.9s-3.4-0.7-4.6-1.9l-53-52.2c-1.1,1.8-2.3,3.6-3.2,5.4L63,74.2c-1,2-2,4-2.8,6.1L9,187.5
	c-5.1,8.6-3.7,19.6,3.3,26.6c6.5,6.5,15.8,8.7,23.9,4.8c4.1-2,33.6-16,61.2-29.2l-32-31.6h-0.1c-2.6-2.6-2.6-6.7,0-9.3
	s6.7-2.6,9.3,0l35.4,34.9l38.1-18.1l3-1.5c18.7-9.6,31.7-27.6,35-48.3C189.3,95,182.4,74,167.5,59.1"/>
<path class="st0" d="M176.3,3.1c-1.9,0-3.8,0.7-5.2,2.2c-1.4,1.4-2.2,3.2-2.2,5.2v39.7v0.1v0.3c0,1.8,0.7,3.6,2,4.9
	c1.3,1.3,3.1,2,4.9,2h40c2.7,0.1,5.3-1.2,6.6-3.6c1.4-2.3,1.4-5.2,0-7.5s-4-3.7-6.6-3.6h-22.1l15.6-15.6c2.1-2.1,2.7-5.2,1.6-7.9
	c-1.1-2.7-3.8-4.5-6.7-4.5c-1.9,0-3.8,0.8-5.2,2.2l-15.4,15.5V10.4C183.6,6.4,180.4,3.1,176.3,3.1"/>
</svg>
