<?xml version="1.0" encoding="utf-8"?>
<!-- Generator: Adobe Illustrator 23.0.1, SVG Export Plug-In . SVG Version: 6.00 Build 0)  -->
<svg version="1.1" id="图层_1" xmlns="http://www.w3.org/2000/svg" xmlns:xlink="http://www.w3.org/1999/xlink" x="0px" y="0px"
	 viewBox="0 0 226.8 226.8" style="enable-background:new 0 0 226.8 226.8;" xml:space="preserve">
<style type="text/css">
	.st0{fill:#FF0000;}
</style>
<g>
	<path class="st0" d="M27.2,77.4c0.6,0,1.1-0.2,1.6-0.6c0.5-0.5,0.6-1,0.6-1.6V62.7c0-0.8-0.3-1.6-1.1-2.1c-0.8-0.5-1.6-0.5-2.4,0
		s-1.1,1.1-1.1,2.1v6.9l-4.8-5c-0.6-0.6-1.6-0.8-2.6-0.5S16,65.2,16,66.2c0,0.6,0.2,1.1,0.6,1.6l4.8,4.8h-6.8c-1.3,0-2.2,1-2.2,2.2
		c0,0.6,0.2,1.1,0.6,1.6c0.6,0.9,1.1,1,1.7,1H27H27.2z"/>
	<path class="st0" d="M99.9,73l-1.4,0.8c-6.6,3.7-7.7,9.1-7.8,12.2c5.3-5.6,10.9-6.6,11-6.6l1.8-0.3l-0.6,1.8
		c-1,2.9-1.4,5.3-1.4,7.5c0,3,0.8,5.3,1.4,6.7c1.6-7.8,7.2-13.1,7.5-13.3l0.6-0.6l0.6,0.6c0.3,0.2,5.9,5.4,7.5,13.3
		c0.8-1.4,1.4-3.7,1.4-6.7c0-2.1-0.3-4.6-1.4-7.5l-0.6-1.8l1.8,0.3c0.2,0,5.8,1.1,11,6.6c-0.2-3-1.3-8.5-7.8-12.2l-1.4-0.8l1.4-1
		c0.2-0.2,3.5-2.6,10.1-3c-3.4-2.2-10.2-5.1-17.4,0l-1,0.8L111,61l-4.2,8.8l-1-0.8c-7.2-5.1-14.1-2.2-17.4,0c6.6,0.6,9.9,3,10.1,3
		L99.9,73z"/>
	<path class="st0" d="M165.2,85.1c7.5,2.1,3.8,9.4,3.8,9.4c0.6-1.6,4.3-0.8,4.3-0.8c-0.5-2.9,4-3.5,4-3.5c-0.8-4,4.5-2.6,4.2-3.8
		c-0.3-1.1,0-2.6,0.8-3.5c0.8-1,1.9-1.6,3.2-1.8c-9.9-5.8-23.2-1.8-23.2-1.8C164.4,80.3,165.7,82.7,165.2,85.1z"/>
	<path class="st0" d="M179.7,109.7c-2.2-1.8-13.3-6.1-12.3-19.4c0,0,0.2-3.4-4.2-3.7c0,0,2.6-5.1-3.4-5.4l0.2-3.4l0.2-1.8
		c0,0-5.6,3.8-13.4,8.8c-1.1,0.8-2.4,2.1-3.5,3.8c-3-6.9-8.5-12.5-15.7-16c-0.5,0.2-1,0.3-1.1,0.5c6.4,4.3,7.4,10.6,7.4,13.6
		c0,1.3-0.2,1.9-0.2,2.1l-0.3,2.2l-1.4-1.8c-3.5-4.5-7.5-6.4-9.8-7.2c0.6,2.4,1,4.5,1,6.2c0,6.6-3.2,10.1-3.4,10.2l-1.6,1.8
		l-0.2-2.4c-0.5-6.9-4.8-12.2-6.6-13.9c-1.8,1.8-6.1,7-6.6,13.9l-0.2,2.4l-1.6-1.8c-0.2-0.2-3.4-3.8-3.4-10.2c0-1.9,0.3-4,1-6.4
		c-2.2,0.8-6.1,2.7-9.8,7.2l-1.4,1.8l-0.3-2.2c-0.2-0.6-0.2-1.4-0.2-2.1c0-3.2,1-9.3,7.4-13.6c-0.3-0.2-0.8-0.3-1.3-0.5
		C84.2,77.6,77,88,77,99.8c0,9.6,4.6,17.8,12,23.6h44.5c3.2-2.4,5.6-5.3,7.6-8.5c1.7,3.2,4.5,6.2,8.3,8.5h6.3
		c-2.2-1.8-4.1-4.1-5.7-6.8c-2.2-3.8-5.3-0.8-7-5c0.3-0.8,0.8-1.8,1-2.6c1.1,1.1,2.2,2.1,3.5,3c1.9,1.8-4-12,0.8-19.7
		c0,0-0.8,9.1,0.3,14.1c0,0,5.4-3.7,7.4-7.7c0,0,0.3,5.6-6.4,10.9c1,3,2.7,5.9,5,8.3c3-2.7,5.6-5.9,8-9.3c-0.6,4.3-2.6,8.3-5.4,11.7
		c1.2,1.1,2.6,2.2,4.1,3.1h2.4c1.9-2.2,3.5-4.5,4.6-7.2c0,2.5-0.7,4.9-1.9,7.2h17.6C187.2,117.3,181.8,111.4,179.7,109.7z"/>
	<path class="st0" d="M70.8,99.7l-9.9,10.1c-0.8,0.8-2.1,0.8-2.9,0c-0.8-0.8-0.8-2.1,0-2.9l10.9-11L63.2,84l-0.5-1
		c-3-5.8-8.6-9.9-15-10.9c-6.6-1-13.1,1.1-17.6,5.8c-8,8-8,20.8-0.2,28.8l16.6-16.6c0.3-0.3,1-0.6,1.4-0.6c0.6,0,1.1,0.2,1.4,0.6
		c0.3,0.3,0.6,1,0.6,1.4c0,0.4-0.2,1.1-0.6,1.4l-16.1,16.5c0.6,0.3,1.1,0.6,1.6,1c0.6,0.3,1.3,0.6,1.9,1l25.1,12h18.4
		c0.5-1.5,0.4-3.1-0.3-4.7C79.3,117.4,74.9,108.1,70.8,99.7z"/>
	<path class="st0" d="M187.6,76.3c-0.2,1.9-0.2,3.8,0.2,5.8c0.2,1.9-5.4-1.1-4.6,5.8c0,0-4.5-0.6-3.7,4.3c-1.3-0.2-2.6,0.2-3.5,1
		c-1,0.8-1.4,2.1-1.4,3.4s-5.6-1.6-4.8,1c0.8,2.4,2.2,4,9.4,9.6c7.2,5.8,8,10.4,6.6,15.2c0,0,5.3-4,6.7-6.7c0,0-5.9-5.9-5.8-11
		c0,0,6.7,7.7,7.5,8.3l1.8-6.4c0,0-5.8-6.4-6.1-9.8c0,0,5.6,5.4,7.2,6.6c0,0,0.5-9.1,0-10.6c-0.5-1.4,4.8,4.2,0.8,19.4
		c2.2-1,4-2.7,5.3-4.8c1.1-2.1,1,5.9-8,9.9c0,0-2.2,3.2-5.1,6.1h4.6c5.5-3.1,11.2-8.6,11.8-19.1C207.4,87.3,195.6,87,187.6,76.3z"/>
</g>
</svg>
